<svg width="20" height="20" viewBox="0 0 20 20" fill="none" xmlns="http://www.w3.org/2000/svg">
<path d="M17.05 2.90999C16.1331 1.9841 15.041 1.24996 13.8375 0.750355C12.634 0.250751 11.3431 -0.0043242 10.04 -7.14002e-06C4.57999 -7.14002e-06 0.129988 4.44999 0.129988 9.90999C0.129988 11.66 0.589988 13.36 1.44999 14.86L0.0499878 20L5.29999 18.62C6.74999 19.41 8.37999 19.83 10.04 19.83C15.5 19.83 19.95 15.38 19.95 9.91999C19.95 7.26999 18.92 4.77999 17.05 2.90999ZM10.04 18.15C8.55999 18.15 7.10999 17.75 5.83999 17L5.53999 16.82L2.41999 17.64L3.24999 14.6L3.04999 14.29C2.22754 12.9771 1.79091 11.4593 1.78999 9.90999C1.78999 5.36999 5.48999 1.66999 10.03 1.66999C12.23 1.66999 14.3 2.52999 15.85 4.08999C16.6176 4.85386 17.2259 5.76254 17.6396 6.76332C18.0533 7.76411 18.2642 8.83708 18.26 9.91999C18.28 14.46 14.58 18.15 10.04 18.15ZM14.56 11.99C14.31 11.87 13.09 11.27 12.87 11.18C12.64 11.1 12.48 11.06 12.31 11.3C12.14 11.55 11.67 12.11 11.53 12.27C11.39 12.44 11.24 12.46 10.99 12.33C10.74 12.21 9.93999 11.94 8.99999 11.1C8.25999 10.44 7.76999 9.62999 7.61999 9.37999C7.47999 9.12999 7.59999 8.99999 7.72999 8.86999C7.83999 8.75999 7.97999 8.57999 8.09999 8.43999C8.21999 8.29999 8.26999 8.18999 8.34999 8.02999C8.42999 7.85999 8.38999 7.71999 8.32999 7.59999C8.26999 7.47999 7.76999 6.25999 7.56999 5.75999C7.36999 5.27999 7.15999 5.33999 7.00999 5.32999H6.52999C6.35999 5.32999 6.09999 5.38999 5.86999 5.63999C5.64999 5.88999 5.00999 6.48999 5.00999 7.70999C5.00999 8.92999 5.89999 10.11 6.01999 10.27C6.13999 10.44 7.76999 12.94 10.25 14.01C10.84 14.27 11.3 14.42 11.66 14.53C12.25 14.72 12.79 14.69 13.22 14.63C13.7 14.56 14.69 14.03 14.89 13.45C15.1 12.87 15.1 12.38 15.03 12.27C14.96 12.16 14.81 12.11 14.56 11.99Z" fill="black"/>
</svg>
